<svg width="318" height="69" viewBox="0 0 318 69" fill="none" xmlns="http://www.w3.org/2000/svg">
<path d="M99.4297 37.2734H90.5469V32.6094H99.4297C100.977 32.6094 102.227 32.3594 103.18 31.8594C104.133 31.3594 104.828 30.6719 105.266 29.7969C105.719 28.9062 105.945 27.8906 105.945 26.75C105.945 25.6719 105.719 24.6641 105.266 23.7266C104.828 22.7734 104.133 22.0078 103.18 21.4297C102.227 20.8516 100.977 20.5625 99.4297 20.5625H92.3516V50H86.4688V15.875H99.4297C102.07 15.875 104.312 16.3438 106.156 17.2812C108.016 18.2031 109.43 19.4844 110.398 21.125C111.367 22.75 111.852 24.6094 111.852 26.7031C111.852 28.9062 111.367 30.7969 110.398 32.375C109.43 33.9531 108.016 35.1641 106.156 36.0078C104.312 36.8516 102.07 37.2734 99.4297 37.2734ZM131.82 44.0234V24.6406H137.492V50H132.148L131.82 44.0234ZM132.617 38.75L134.516 38.7031C134.516 40.4062 134.328 41.9766 133.953 43.4141C133.578 44.8359 133 46.0781 132.219 47.1406C131.438 48.1875 130.438 49.0078 129.219 49.6016C128 50.1797 126.539 50.4688 124.836 50.4688C123.602 50.4688 122.469 50.2891 121.438 49.9297C120.406 49.5703 119.516 49.0156 118.766 48.2656C118.031 47.5156 117.461 46.5391 117.055 45.3359C116.648 44.1328 116.445 42.6953 116.445 41.0234V24.6406H122.094V41.0703C122.094 41.9922 122.203 42.7656 122.422 43.3906C122.641 44 122.938 44.4922 123.312 44.8672C123.688 45.2422 124.125 45.5078 124.625 45.6641C125.125 45.8203 125.656 45.8984 126.219 45.8984C127.828 45.8984 129.094 45.5859 130.016 44.9609C130.953 44.3203 131.617 43.4609 132.008 42.3828C132.414 41.3047 132.617 40.0938 132.617 38.75ZM143.305 14H148.953V44.5859L148.414 50H143.305V14ZM165.5 37.0859V37.5781C165.5 39.4531 165.289 41.1797 164.867 42.7578C164.461 44.3203 163.836 45.6797 162.992 46.8359C162.164 47.9922 161.133 48.8906 159.898 49.5312C158.68 50.1562 157.266 50.4688 155.656 50.4688C154.078 50.4688 152.703 50.1719 151.531 49.5781C150.359 48.9844 149.375 48.1406 148.578 47.0469C147.797 45.9531 147.164 44.6484 146.68 43.1328C146.195 41.6172 145.852 39.9453 145.648 38.1172V36.5469C145.852 34.7031 146.195 33.0312 146.68 31.5312C147.164 30.0156 147.797 28.7109 148.578 27.6172C149.375 26.5078 150.352 25.6562 151.508 25.0625C152.68 24.4688 154.047 24.1719 155.609 24.1719C157.234 24.1719 158.664 24.4844 159.898 25.1094C161.148 25.7344 162.188 26.625 163.016 27.7812C163.844 28.9219 164.461 30.2812 164.867 31.8594C165.289 33.4375 165.5 35.1797 165.5 37.0859ZM159.852 37.5781V37.0859C159.852 35.9453 159.758 34.875 159.57 33.875C159.383 32.8594 159.07 31.9688 158.633 31.2031C158.211 30.4375 157.633 29.8359 156.898 29.3984C156.18 28.9453 155.281 28.7188 154.203 28.7188C153.203 28.7188 152.344 28.8906 151.625 29.2344C150.906 29.5781 150.305 30.0469 149.82 30.6406C149.336 31.2344 148.953 31.9219 148.672 32.7031C148.406 33.4844 148.227 34.3281 148.133 35.2344V39.4766C148.273 40.6484 148.57 41.7266 149.023 42.7109C149.492 43.6797 150.148 44.4609 150.992 45.0547C151.836 45.6328 152.922 45.9219 154.25 45.9219C155.297 45.9219 156.18 45.7109 156.898 45.2891C157.617 44.8672 158.188 44.2812 158.609 43.5312C159.047 42.7656 159.359 41.875 159.547 40.8594C159.75 39.8438 159.852 38.75 159.852 37.5781ZM176.328 14V50H170.656V14H176.328ZM188.562 24.6406V50H182.891V24.6406H188.562ZM182.516 17.9844C182.516 17.125 182.797 16.4141 183.359 15.8516C183.938 15.2734 184.734 14.9844 185.75 14.9844C186.75 14.9844 187.539 15.2734 188.117 15.8516C188.695 16.4141 188.984 17.125 188.984 17.9844C188.984 18.8281 188.695 19.5312 188.117 20.0938C187.539 20.6562 186.75 20.9375 185.75 20.9375C184.734 20.9375 183.938 20.6562 183.359 20.0938C182.797 19.5312 182.516 18.8281 182.516 17.9844ZM205.109 45.9688C206.031 45.9688 206.859 45.7891 207.594 45.4297C208.344 45.0547 208.945 44.5391 209.398 43.8828C209.867 43.2266 210.125 42.4688 210.172 41.6094H215.492C215.461 43.25 214.977 44.7422 214.039 46.0859C213.102 47.4297 211.859 48.5 210.312 49.2969C208.766 50.0781 207.055 50.4688 205.18 50.4688C203.242 50.4688 201.555 50.1406 200.117 49.4844C198.68 48.8125 197.484 47.8906 196.531 46.7188C195.578 45.5469 194.859 44.1953 194.375 42.6641C193.906 41.1328 193.672 39.4922 193.672 37.7422V36.9219C193.672 35.1719 193.906 33.5312 194.375 32C194.859 30.4531 195.578 29.0938 196.531 27.9219C197.484 26.75 198.68 25.8359 200.117 25.1797C201.555 24.5078 203.234 24.1719 205.156 24.1719C207.188 24.1719 208.969 24.5781 210.5 25.3906C212.031 26.1875 213.234 27.3047 214.109 28.7422C215 30.1641 215.461 31.8203 215.492 33.7109H210.172C210.125 32.7734 209.891 31.9297 209.469 31.1797C209.062 30.4141 208.484 29.8047 207.734 29.3516C207 28.8984 206.117 28.6719 205.086 28.6719C203.945 28.6719 203 28.9062 202.25 29.375C201.5 29.8281 200.914 30.4531 200.492 31.25C200.07 32.0312 199.766 32.9141 199.578 33.8984C199.406 34.8672 199.32 35.875 199.32 36.9219V37.7422C199.32 38.7891 199.406 39.8047 199.578 40.7891C199.75 41.7734 200.047 42.6562 200.469 43.4375C200.906 44.2031 201.5 44.8203 202.25 45.2891C203 45.7422 203.953 45.9688 205.109 45.9688ZM234.125 44.9141V32.8203C234.125 31.9141 233.961 31.1328 233.633 30.4766C233.305 29.8203 232.805 29.3125 232.133 28.9531C231.477 28.5938 230.648 28.4141 229.648 28.4141C228.727 28.4141 227.93 28.5703 227.258 28.8828C226.586 29.1953 226.062 29.6172 225.688 30.1484C225.312 30.6797 225.125 31.2812 225.125 31.9531H219.5C219.5 30.9531 219.742 29.9844 220.227 29.0469C220.711 28.1094 221.414 27.2734 222.336 26.5391C223.258 25.8047 224.359 25.2266 225.641 24.8047C226.922 24.3828 228.359 24.1719 229.953 24.1719C231.859 24.1719 233.547 24.4922 235.016 25.1328C236.5 25.7734 237.664 26.7422 238.508 28.0391C239.367 29.3203 239.797 30.9297 239.797 32.8672V44.1406C239.797 45.2969 239.875 46.3359 240.031 47.2578C240.203 48.1641 240.445 48.9531 240.758 49.625V50H234.969C234.703 49.3906 234.492 48.6172 234.336 47.6797C234.195 46.7266 234.125 45.8047 234.125 44.9141ZM234.945 34.5781L234.992 38.0703H230.938C229.891 38.0703 228.969 38.1719 228.172 38.375C227.375 38.5625 226.711 38.8438 226.18 39.2188C225.648 39.5938 225.25 40.0469 224.984 40.5781C224.719 41.1094 224.586 41.7109 224.586 42.3828C224.586 43.0547 224.742 43.6719 225.055 44.2344C225.367 44.7812 225.82 45.2109 226.414 45.5234C227.023 45.8359 227.758 45.9922 228.617 45.9922C229.773 45.9922 230.781 45.7578 231.641 45.2891C232.516 44.8047 233.203 44.2188 233.703 43.5312C234.203 42.8281 234.469 42.1641 234.5 41.5391L236.328 44.0469C236.141 44.6875 235.82 45.375 235.367 46.1094C234.914 46.8438 234.32 47.5469 233.586 48.2188C232.867 48.875 232 49.4141 230.984 49.8359C229.984 50.2578 228.828 50.4688 227.516 50.4688C225.859 50.4688 224.383 50.1406 223.086 49.4844C221.789 48.8125 220.773 47.9141 220.039 46.7891C219.305 45.6484 218.938 44.3594 218.938 42.9219C218.938 41.5781 219.188 40.3906 219.688 39.3594C220.203 38.3125 220.953 37.4375 221.938 36.7344C222.938 36.0312 224.156 35.5 225.594 35.1406C227.031 34.7656 228.672 34.5781 230.516 34.5781H234.945ZM261.172 44.75V14H266.844V50H261.711L261.172 44.75ZM244.672 37.6016V37.1094C244.672 35.1875 244.898 33.4375 245.352 31.8594C245.805 30.2656 246.461 28.8984 247.32 27.7578C248.18 26.6016 249.227 25.7188 250.461 25.1094C251.695 24.4844 253.086 24.1719 254.633 24.1719C256.164 24.1719 257.508 24.4688 258.664 25.0625C259.82 25.6562 260.805 26.5078 261.617 27.6172C262.43 28.7109 263.078 30.0234 263.562 31.5547C264.047 33.0703 264.391 34.7578 264.594 36.6172V38.1875C264.391 40 264.047 41.6562 263.562 43.1562C263.078 44.6562 262.43 45.9531 261.617 47.0469C260.805 48.1406 259.812 48.9844 258.641 49.5781C257.484 50.1719 256.133 50.4688 254.586 50.4688C253.055 50.4688 251.672 50.1484 250.438 49.5078C249.219 48.8672 248.18 47.9688 247.32 46.8125C246.461 45.6562 245.805 44.2969 245.352 42.7344C244.898 41.1562 244.672 39.4453 244.672 37.6016ZM250.32 37.1094V37.6016C250.32 38.7578 250.422 39.8359 250.625 40.8359C250.844 41.8359 251.18 42.7188 251.633 43.4844C252.086 44.2344 252.672 44.8281 253.391 45.2656C254.125 45.6875 255 45.8984 256.016 45.8984C257.297 45.8984 258.352 45.6172 259.18 45.0547C260.008 44.4922 260.656 43.7344 261.125 42.7812C261.609 41.8125 261.938 40.7344 262.109 39.5469V35.3047C262.016 34.3828 261.82 33.5234 261.523 32.7266C261.242 31.9297 260.859 31.2344 260.375 30.6406C259.891 30.0312 259.289 29.5625 258.57 29.2344C257.867 28.8906 257.031 28.7188 256.062 28.7188C255.031 28.7188 254.156 28.9375 253.438 29.375C252.719 29.8125 252.125 30.4141 251.656 31.1797C251.203 31.9453 250.867 32.8359 250.648 33.8516C250.43 34.8672 250.32 35.9531 250.32 37.1094ZM271.672 37.6016V37.0625C271.672 35.2344 271.938 33.5391 272.469 31.9766C273 30.3984 273.766 29.0312 274.766 27.875C275.781 26.7031 277.016 25.7969 278.469 25.1562C279.938 24.5 281.594 24.1719 283.438 24.1719C285.297 24.1719 286.953 24.5 288.406 25.1562C289.875 25.7969 291.117 26.7031 292.133 27.875C293.148 29.0312 293.922 30.3984 294.453 31.9766C294.984 33.5391 295.25 35.2344 295.25 37.0625V37.6016C295.25 39.4297 294.984 41.125 294.453 42.6875C293.922 44.25 293.148 45.6172 292.133 46.7891C291.117 47.9453 289.883 48.8516 288.43 49.5078C286.977 50.1484 285.328 50.4688 283.484 50.4688C281.625 50.4688 279.961 50.1484 278.492 49.5078C277.039 48.8516 275.805 47.9453 274.789 46.7891C273.773 45.6172 273 44.25 272.469 42.6875C271.938 41.125 271.672 39.4297 271.672 37.6016ZM277.32 37.0625V37.6016C277.32 38.7422 277.438 39.8203 277.672 40.8359C277.906 41.8516 278.273 42.7422 278.773 43.5078C279.273 44.2734 279.914 44.875 280.695 45.3125C281.477 45.75 282.406 45.9688 283.484 45.9688C284.531 45.9688 285.438 45.75 286.203 45.3125C286.984 44.875 287.625 44.2734 288.125 43.5078C288.625 42.7422 288.992 41.8516 289.227 40.8359C289.477 39.8203 289.602 38.7422 289.602 37.6016V37.0625C289.602 35.9375 289.477 34.875 289.227 33.875C288.992 32.8594 288.617 31.9609 288.102 31.1797C287.602 30.3984 286.961 29.7891 286.18 29.3516C285.414 28.8984 284.5 28.6719 283.438 28.6719C282.375 28.6719 281.453 28.8984 280.672 29.3516C279.906 29.7891 279.273 30.3984 278.773 31.1797C278.273 31.9609 277.906 32.8594 277.672 33.875C277.438 34.875 277.32 35.9375 277.32 37.0625ZM305.656 29.4688V50H300.008V24.6406H305.398L305.656 29.4688ZM313.414 24.4766L313.367 29.7266C313.023 29.6641 312.648 29.6172 312.242 29.5859C311.852 29.5547 311.461 29.5391 311.07 29.5391C310.102 29.5391 309.25 29.6797 308.516 29.9609C307.781 30.2266 307.164 30.6172 306.664 31.1328C306.18 31.6328 305.805 32.2422 305.539 32.9609C305.273 33.6797 305.117 34.4844 305.07 35.375L303.781 35.4688C303.781 33.875 303.938 32.3984 304.25 31.0391C304.562 29.6797 305.031 28.4844 305.656 27.4531C306.297 26.4219 307.094 25.6172 308.047 25.0391C309.016 24.4609 310.133 24.1719 311.398 24.1719C311.742 24.1719 312.109 24.2031 312.5 24.2656C312.906 24.3281 313.211 24.3984 313.414 24.4766Z" fill="#008060"/>
<circle cx="34.5" cy="34.5" r="34.5" fill="#035A4B"/>
<path d="M37.4297 37.2734H28.5469V32.6094H37.4297C38.9766 32.6094 40.2266 32.3594 41.1797 31.8594C42.1328 31.3594 42.8281 30.6719 43.2656 29.7969C43.7188 28.9062 43.9453 27.8906 43.9453 26.75C43.9453 25.6719 43.7188 24.6641 43.2656 23.7266C42.8281 22.7734 42.1328 22.0078 41.1797 21.4297C40.2266 20.8516 38.9766 20.5625 37.4297 20.5625H30.3516V50H24.4688V15.875H37.4297C40.0703 15.875 42.3125 16.3438 44.1562 17.2812C46.0156 18.2031 47.4297 19.4844 48.3984 21.125C49.3672 22.75 49.8516 24.6094 49.8516 26.7031C49.8516 28.9062 49.3672 30.7969 48.3984 32.375C47.4297 33.9531 46.0156 35.1641 44.1562 36.0078C42.3125 36.8516 40.0703 37.2734 37.4297 37.2734Z" fill="white"/>
</svg>
