<svg width="228" height="37" viewBox="0 0 228 37" fill="none" xmlns="http://www.w3.org/2000/svg">
<path d="M13.4297 23.2734H4.54688V18.6094H13.4297C14.9766 18.6094 16.2266 18.3594 17.1797 17.8594C18.1328 17.3594 18.8281 16.6719 19.2656 15.7969C19.7188 14.9062 19.9453 13.8906 19.9453 12.75C19.9453 11.6719 19.7188 10.6641 19.2656 9.72656C18.8281 8.77344 18.1328 8.00781 17.1797 7.42969C16.2266 6.85156 14.9766 6.5625 13.4297 6.5625H6.35156V36H0.46875V1.875H13.4297C16.0703 1.875 18.3125 2.34375 20.1562 3.28125C22.0156 4.20312 23.4297 5.48438 24.3984 7.125C25.3672 8.75 25.8516 10.6094 25.8516 12.7031C25.8516 14.9062 25.3672 16.7969 24.3984 18.375C23.4297 19.9531 22.0156 21.1641 20.1562 22.0078C18.3125 22.8516 16.0703 23.2734 13.4297 23.2734ZM45.8203 30.0234V10.6406H51.4922V36H46.1484L45.8203 30.0234ZM46.6172 24.75L48.5156 24.7031C48.5156 26.4062 48.3281 27.9766 47.9531 29.4141C47.5781 30.8359 47 32.0781 46.2188 33.1406C45.4375 34.1875 44.4375 35.0078 43.2188 35.6016C42 36.1797 40.5391 36.4688 38.8359 36.4688C37.6016 36.4688 36.4688 36.2891 35.4375 35.9297C34.4062 35.5703 33.5156 35.0156 32.7656 34.2656C32.0312 33.5156 31.4609 32.5391 31.0547 31.3359C30.6484 30.1328 30.4453 28.6953 30.4453 27.0234V10.6406H36.0938V27.0703C36.0938 27.9922 36.2031 28.7656 36.4219 29.3906C36.6406 30 36.9375 30.4922 37.3125 30.8672C37.6875 31.2422 38.125 31.5078 38.625 31.6641C39.125 31.8203 39.6562 31.8984 40.2188 31.8984C41.8281 31.8984 43.0938 31.5859 44.0156 30.9609C44.9531 30.3203 45.6172 29.4609 46.0078 28.3828C46.4141 27.3047 46.6172 26.0938 46.6172 24.75ZM57.3047 0H62.9531V30.5859L62.4141 36H57.3047V0ZM79.5 23.0859V23.5781C79.5 25.4531 79.2891 27.1797 78.8672 28.7578C78.4609 30.3203 77.8359 31.6797 76.9922 32.8359C76.1641 33.9922 75.1328 34.8906 73.8984 35.5312C72.6797 36.1562 71.2656 36.4688 69.6562 36.4688C68.0781 36.4688 66.7031 36.1719 65.5312 35.5781C64.3594 34.9844 63.375 34.1406 62.5781 33.0469C61.7969 31.9531 61.1641 30.6484 60.6797 29.1328C60.1953 27.6172 59.8516 25.9453 59.6484 24.1172V22.5469C59.8516 20.7031 60.1953 19.0312 60.6797 17.5312C61.1641 16.0156 61.7969 14.7109 62.5781 13.6172C63.375 12.5078 64.3516 11.6562 65.5078 11.0625C66.6797 10.4688 68.0469 10.1719 69.6094 10.1719C71.2344 10.1719 72.6641 10.4844 73.8984 11.1094C75.1484 11.7344 76.1875 12.625 77.0156 13.7812C77.8438 14.9219 78.4609 16.2812 78.8672 17.8594C79.2891 19.4375 79.5 21.1797 79.5 23.0859ZM73.8516 23.5781V23.0859C73.8516 21.9453 73.7578 20.875 73.5703 19.875C73.3828 18.8594 73.0703 17.9688 72.6328 17.2031C72.2109 16.4375 71.6328 15.8359 70.8984 15.3984C70.1797 14.9453 69.2812 14.7188 68.2031 14.7188C67.2031 14.7188 66.3438 14.8906 65.625 15.2344C64.9062 15.5781 64.3047 16.0469 63.8203 16.6406C63.3359 17.2344 62.9531 17.9219 62.6719 18.7031C62.4062 19.4844 62.2266 20.3281 62.1328 21.2344V25.4766C62.2734 26.6484 62.5703 27.7266 63.0234 28.7109C63.4922 29.6797 64.1484 30.4609 64.9922 31.0547C65.8359 31.6328 66.9219 31.9219 68.25 31.9219C69.2969 31.9219 70.1797 31.7109 70.8984 31.2891C71.6172 30.8672 72.1875 30.2812 72.6094 29.5312C73.0469 28.7656 73.3594 27.875 73.5469 26.8594C73.75 25.8438 73.8516 24.75 73.8516 23.5781ZM90.3281 0V36H84.6562V0H90.3281ZM102.562 10.6406V36H96.8906V10.6406H102.562ZM96.5156 3.98438C96.5156 3.125 96.7969 2.41406 97.3594 1.85156C97.9375 1.27344 98.7344 0.984375 99.75 0.984375C100.75 0.984375 101.539 1.27344 102.117 1.85156C102.695 2.41406 102.984 3.125 102.984 3.98438C102.984 4.82812 102.695 5.53125 102.117 6.09375C101.539 6.65625 100.75 6.9375 99.75 6.9375C98.7344 6.9375 97.9375 6.65625 97.3594 6.09375C96.7969 5.53125 96.5156 4.82812 96.5156 3.98438ZM119.109 31.9688C120.031 31.9688 120.859 31.7891 121.594 31.4297C122.344 31.0547 122.945 30.5391 123.398 29.8828C123.867 29.2266 124.125 28.4688 124.172 27.6094H129.492C129.461 29.25 128.977 30.7422 128.039 32.0859C127.102 33.4297 125.859 34.5 124.312 35.2969C122.766 36.0781 121.055 36.4688 119.18 36.4688C117.242 36.4688 115.555 36.1406 114.117 35.4844C112.68 34.8125 111.484 33.8906 110.531 32.7188C109.578 31.5469 108.859 30.1953 108.375 28.6641C107.906 27.1328 107.672 25.4922 107.672 23.7422V22.9219C107.672 21.1719 107.906 19.5312 108.375 18C108.859 16.4531 109.578 15.0938 110.531 13.9219C111.484 12.75 112.68 11.8359 114.117 11.1797C115.555 10.5078 117.234 10.1719 119.156 10.1719C121.188 10.1719 122.969 10.5781 124.5 11.3906C126.031 12.1875 127.234 13.3047 128.109 14.7422C129 16.1641 129.461 17.8203 129.492 19.7109H124.172C124.125 18.7734 123.891 17.9297 123.469 17.1797C123.062 16.4141 122.484 15.8047 121.734 15.3516C121 14.8984 120.117 14.6719 119.086 14.6719C117.945 14.6719 117 14.9062 116.25 15.375C115.5 15.8281 114.914 16.4531 114.492 17.25C114.07 18.0312 113.766 18.9141 113.578 19.8984C113.406 20.8672 113.32 21.875 113.32 22.9219V23.7422C113.32 24.7891 113.406 25.8047 113.578 26.7891C113.75 27.7734 114.047 28.6562 114.469 29.4375C114.906 30.2031 115.5 30.8203 116.25 31.2891C117 31.7422 117.953 31.9688 119.109 31.9688ZM148.125 30.9141V18.8203C148.125 17.9141 147.961 17.1328 147.633 16.4766C147.305 15.8203 146.805 15.3125 146.133 14.9531C145.477 14.5938 144.648 14.4141 143.648 14.4141C142.727 14.4141 141.93 14.5703 141.258 14.8828C140.586 15.1953 140.062 15.6172 139.688 16.1484C139.312 16.6797 139.125 17.2812 139.125 17.9531H133.5C133.5 16.9531 133.742 15.9844 134.227 15.0469C134.711 14.1094 135.414 13.2734 136.336 12.5391C137.258 11.8047 138.359 11.2266 139.641 10.8047C140.922 10.3828 142.359 10.1719 143.953 10.1719C145.859 10.1719 147.547 10.4922 149.016 11.1328C150.5 11.7734 151.664 12.7422 152.508 14.0391C153.367 15.3203 153.797 16.9297 153.797 18.8672V30.1406C153.797 31.2969 153.875 32.3359 154.031 33.2578C154.203 34.1641 154.445 34.9531 154.758 35.625V36H148.969C148.703 35.3906 148.492 34.6172 148.336 33.6797C148.195 32.7266 148.125 31.8047 148.125 30.9141ZM148.945 20.5781L148.992 24.0703H144.938C143.891 24.0703 142.969 24.1719 142.172 24.375C141.375 24.5625 140.711 24.8438 140.18 25.2188C139.648 25.5938 139.25 26.0469 138.984 26.5781C138.719 27.1094 138.586 27.7109 138.586 28.3828C138.586 29.0547 138.742 29.6719 139.055 30.2344C139.367 30.7812 139.82 31.2109 140.414 31.5234C141.023 31.8359 141.758 31.9922 142.617 31.9922C143.773 31.9922 144.781 31.7578 145.641 31.2891C146.516 30.8047 147.203 30.2188 147.703 29.5312C148.203 28.8281 148.469 28.1641 148.5 27.5391L150.328 30.0469C150.141 30.6875 149.82 31.375 149.367 32.1094C148.914 32.8438 148.32 33.5469 147.586 34.2188C146.867 34.875 146 35.4141 144.984 35.8359C143.984 36.2578 142.828 36.4688 141.516 36.4688C139.859 36.4688 138.383 36.1406 137.086 35.4844C135.789 34.8125 134.773 33.9141 134.039 32.7891C133.305 31.6484 132.938 30.3594 132.938 28.9219C132.938 27.5781 133.188 26.3906 133.688 25.3594C134.203 24.3125 134.953 23.4375 135.938 22.7344C136.938 22.0312 138.156 21.5 139.594 21.1406C141.031 20.7656 142.672 20.5781 144.516 20.5781H148.945ZM175.172 30.75V0H180.844V36H175.711L175.172 30.75ZM158.672 23.6016V23.1094C158.672 21.1875 158.898 19.4375 159.352 17.8594C159.805 16.2656 160.461 14.8984 161.32 13.7578C162.18 12.6016 163.227 11.7188 164.461 11.1094C165.695 10.4844 167.086 10.1719 168.633 10.1719C170.164 10.1719 171.508 10.4688 172.664 11.0625C173.82 11.6562 174.805 12.5078 175.617 13.6172C176.43 14.7109 177.078 16.0234 177.562 17.5547C178.047 19.0703 178.391 20.7578 178.594 22.6172V24.1875C178.391 26 178.047 27.6562 177.562 29.1562C177.078 30.6562 176.43 31.9531 175.617 33.0469C174.805 34.1406 173.812 34.9844 172.641 35.5781C171.484 36.1719 170.133 36.4688 168.586 36.4688C167.055 36.4688 165.672 36.1484 164.438 35.5078C163.219 34.8672 162.18 33.9688 161.32 32.8125C160.461 31.6562 159.805 30.2969 159.352 28.7344C158.898 27.1562 158.672 25.4453 158.672 23.6016ZM164.32 23.1094V23.6016C164.32 24.7578 164.422 25.8359 164.625 26.8359C164.844 27.8359 165.18 28.7188 165.633 29.4844C166.086 30.2344 166.672 30.8281 167.391 31.2656C168.125 31.6875 169 31.8984 170.016 31.8984C171.297 31.8984 172.352 31.6172 173.18 31.0547C174.008 30.4922 174.656 29.7344 175.125 28.7812C175.609 27.8125 175.938 26.7344 176.109 25.5469V21.3047C176.016 20.3828 175.82 19.5234 175.523 18.7266C175.242 17.9297 174.859 17.2344 174.375 16.6406C173.891 16.0312 173.289 15.5625 172.57 15.2344C171.867 14.8906 171.031 14.7188 170.062 14.7188C169.031 14.7188 168.156 14.9375 167.438 15.375C166.719 15.8125 166.125 16.4141 165.656 17.1797C165.203 17.9453 164.867 18.8359 164.648 19.8516C164.43 20.8672 164.32 21.9531 164.32 23.1094ZM185.672 23.6016V23.0625C185.672 21.2344 185.938 19.5391 186.469 17.9766C187 16.3984 187.766 15.0312 188.766 13.875C189.781 12.7031 191.016 11.7969 192.469 11.1562C193.938 10.5 195.594 10.1719 197.438 10.1719C199.297 10.1719 200.953 10.5 202.406 11.1562C203.875 11.7969 205.117 12.7031 206.133 13.875C207.148 15.0312 207.922 16.3984 208.453 17.9766C208.984 19.5391 209.25 21.2344 209.25 23.0625V23.6016C209.25 25.4297 208.984 27.125 208.453 28.6875C207.922 30.25 207.148 31.6172 206.133 32.7891C205.117 33.9453 203.883 34.8516 202.43 35.5078C200.977 36.1484 199.328 36.4688 197.484 36.4688C195.625 36.4688 193.961 36.1484 192.492 35.5078C191.039 34.8516 189.805 33.9453 188.789 32.7891C187.773 31.6172 187 30.25 186.469 28.6875C185.938 27.125 185.672 25.4297 185.672 23.6016ZM191.32 23.0625V23.6016C191.32 24.7422 191.438 25.8203 191.672 26.8359C191.906 27.8516 192.273 28.7422 192.773 29.5078C193.273 30.2734 193.914 30.875 194.695 31.3125C195.477 31.75 196.406 31.9688 197.484 31.9688C198.531 31.9688 199.438 31.75 200.203 31.3125C200.984 30.875 201.625 30.2734 202.125 29.5078C202.625 28.7422 202.992 27.8516 203.227 26.8359C203.477 25.8203 203.602 24.7422 203.602 23.6016V23.0625C203.602 21.9375 203.477 20.875 203.227 19.875C202.992 18.8594 202.617 17.9609 202.102 17.1797C201.602 16.3984 200.961 15.7891 200.18 15.3516C199.414 14.8984 198.5 14.6719 197.438 14.6719C196.375 14.6719 195.453 14.8984 194.672 15.3516C193.906 15.7891 193.273 16.3984 192.773 17.1797C192.273 17.9609 191.906 18.8594 191.672 19.875C191.438 20.875 191.32 21.9375 191.32 23.0625ZM219.656 15.4688V36H214.008V10.6406H219.398L219.656 15.4688ZM227.414 10.4766L227.367 15.7266C227.023 15.6641 226.648 15.6172 226.242 15.5859C225.852 15.5547 225.461 15.5391 225.07 15.5391C224.102 15.5391 223.25 15.6797 222.516 15.9609C221.781 16.2266 221.164 16.6172 220.664 17.1328C220.18 17.6328 219.805 18.2422 219.539 18.9609C219.273 19.6797 219.117 20.4844 219.07 21.375L217.781 21.4688C217.781 19.875 217.938 18.3984 218.25 17.0391C218.562 15.6797 219.031 14.4844 219.656 13.4531C220.297 12.4219 221.094 11.6172 222.047 11.0391C223.016 10.4609 224.133 10.1719 225.398 10.1719C225.742 10.1719 226.109 10.2031 226.5 10.2656C226.906 10.3281 227.211 10.3984 227.414 10.4766Z" fill="#008060"/>
</svg>
